<?xml version="1.0" encoding="UTF-8" standalone="no"?>
<svg
   xmlns:dc="http://purl.org/dc/elements/1.1/"
   xmlns:cc="http://creativecommons.org/ns#"
   xmlns:rdf="http://www.w3.org/1999/02/22-rdf-syntax-ns#"
   xmlns:svg="http://www.w3.org/2000/svg"
   xmlns="http://www.w3.org/2000/svg"
   id="svg8"
   version="1.1"
   viewBox="0 0 199.23886 30.695978"
   height="30.695978mm"
   width="199.23886mm">
  <defs
     id="defs2" />
  <metadata
     id="metadata5">
    <rdf:RDF>
      <cc:Work
         rdf:about="">
        <dc:format>image/svg+xml</dc:format>
        <dc:type
           rdf:resource="http://purl.org/dc/dcmitype/StillImage" />
        <dc:title></dc:title>
      </cc:Work>
    </rdf:RDF>
  </metadata>
  <g
     id="layer1"
     transform="translate(-5.1271112,-59.804112)"
     style="fill:#666666">
    <g
       style="fill:#666666"
       id="g902">
      <g
         style="fill:#666666;stroke:none;stroke-opacity:1"
         id="g912"
         transform="matrix(0.53443325,0,0,0.53443325,2.3870125,42.133833)">
        <g
           style="fill:#666666"
           id="g32">
          <g
             id="g33"
             style="fill:#045867;fill-opacity:1">
            <rect
               y="66.857399"
               x="25.602133"
               height="2.8076646"
               width="329.7468"
               id="rect856"
               style="fill:#045867;fill-opacity:1;stroke:none;stroke-width:2.90017;stroke-opacity:1" />
            <text
               id="text864"
               y="57.636097"
               x="91.48587"
               style="font-size:47.22919999999999874px;line-height:0;font-family:Copperplate;-inkscape-font-specification:'Copperplate, Normal';fill:#045867;stroke:none;stroke-width:0.245985;stroke-opacity:1;fill-opacity:1"
               xml:space="preserve"
               transform="scale(0.92970821,1.0756063)"><tspan
                 style="font-size:47.22919999999999874px;line-height:1.25;fill:#045867;fill-opacity:1;stroke:none;stroke-width:0.245985;stroke-opacity:1"
                 y="57.636097"
                 x="91.48587"
                 id="tspan862">UT-Archery</tspan></text>
            <path
               d="m 362.09066,68.390388 -11.51734,3.897671 v -7.795342 z"
               id="path868"
               style="fill:#045867;fill-opacity:1;stroke:none;stroke-width:0.239964;stroke-opacity:1" />
            <path
               style="fill:#045867;stroke-width:0.0713807;fill-opacity:1"
               d="m 200.78271,85.209923 c 0.0195,-0.755745 0.0501,-1.626396 0.068,-1.934783 l 0.0327,-0.560704 -0.54061,0.513531 c -0.75198,0.714301 -1.84028,1.499648 -2.66565,1.923614 -0.67385,0.346139 -2.08915,0.932756 -2.2504,0.932756 -0.0772,0 -0.8061,-0.868931 -0.86096,-1.026394 -0.0168,-0.04788 0.39406,-0.217732 1.02294,-0.422998 1.75158,-0.571712 2.80573,-1.167323 3.87373,-2.188737 l 0.60337,-0.577052 -1.71313,0.0197 -1.71313,0.0197 -0.005,-2.797837 -0.005,-2.797837 2.09258,0.04317 2.09259,0.04317 v -0.480027 -0.480028 l -2.98015,0.01517 -2.98015,0.01517 -0.0206,-0.61443 -0.0206,-0.614428 3.00073,0.04443 3.00072,0.04443 -0.005,-0.38626 c -0.002,-0.212444 -0.031,-0.562929 -0.0623,-0.778855 -0.0315,-0.215927 -0.0527,-0.39842 -0.0473,-0.405539 0.0434,-0.05649 1.70753,0.121001 1.79203,0.191124 0.17462,0.144929 0.12403,0.286132 -0.14244,0.397466 -0.24711,0.103246 -0.24983,0.109177 -0.24983,0.543155 v 0.438767 l 3.10506,-0.04352 3.10506,-0.04352 3e-5,0.620977 4e-5,0.620976 -3.1051,-0.02318 -3.10509,-0.02317 v 0.480215 0.480214 l 2.28418,-0.03989 2.28418,-0.03989 v 2.796839 2.796838 l -1.90943,-0.02661 -1.90944,-0.02662 0.28553,0.296464 c 0.28225,0.293065 1.18804,0.940845 1.83042,1.309026 0.73943,0.423804 1.87591,0.796093 3.53899,1.159295 0.15279,0.03337 0.14625,0.05386 -0.17847,0.559542 -0.18537,0.2887 -0.37123,0.583149 -0.413,0.654335 -0.0713,0.12153 -0.13666,0.108736 -1.07071,-0.209656 -1.22153,-0.416386 -1.99046,-0.771747 -2.76071,-1.275883 -0.56871,-0.372218 -1.37299,-1.050405 -1.78953,-1.508961 l -0.20057,-0.22081 0.0438,1.98082 0.0439,1.980814 h -0.71607 -0.71607 z m 0.0327,-5.014501 v -0.606738 h -1.42761 -1.42762 v 0.606738 0.606737 h 1.42762 1.42761 z m 4.49699,0 v -0.606738 h -1.60607 -1.60607 v 0.606738 0.606737 h 1.60607 1.60607 z m -4.49699,-2.212806 v -0.535355 h -1.42761 -1.42762 v 0.535355 0.535357 h 1.42762 1.42761 z m 4.49699,0 v -0.535355 h -1.60607 -1.60607 v 0.535355 0.535357 h 1.60607 1.60607 z m 19.49464,8.094437 c -0.25097,-0.272704 -0.4437,-0.506748 -0.42829,-0.520097 0.0154,-0.01334 0.34375,-0.16174 0.72967,-0.329757 2.56604,-1.117201 4.07274,-2.759547 4.71449,-5.138849 0.20119,-0.745878 0.4014,-1.824432 0.4014,-2.162332 v -0.21635 l -2.67678,0.04795 -2.67678,0.04796 v -0.670972 -0.670972 l 2.70723,0.03848 2.70725,0.03847 0.05,-0.266601 c 0.0598,-0.318772 -0.006,-2.931104 -0.0794,-3.169537 l -0.0516,-0.167036 0.74166,0.05126 c 0.90883,0.06281 1.24133,0.157775 1.24133,0.354504 0,0.09082 -0.0835,0.181257 -0.23044,0.249521 l -0.23045,0.107072 -0.002,1.419146 -0.002,1.419145 3.05152,-0.02721 3.05153,-0.02723 0.0206,0.659561 0.0206,0.659561 -2.96925,-0.04667 -2.96928,-0.04665 0.0501,0.207977 c 0.0275,0.11439 0.13007,0.43283 0.22774,0.707646 0.94235,2.65106 2.76325,4.699175 5.54823,6.240531 0.23555,0.130367 0.43984,0.247293 0.45394,0.259834 0.0141,0.01254 -0.13579,0.209339 -0.33313,0.437329 -0.19731,0.227991 -0.43614,0.507622 -0.53071,0.621401 l -0.17197,0.206872 -0.5299,-0.313942 c -2.33233,-1.381777 -4.13151,-3.422856 -5.09761,-5.783006 l -0.23091,-0.564103 -0.12443,0.518256 c -0.26797,1.116145 -0.89005,2.472684 -1.49217,3.253851 -0.44138,0.572645 -1.42041,1.488077 -2.01172,1.881055 -0.52182,0.3468 -2.20451,1.205051 -2.34356,1.19532 -0.0438,-0.0031 -0.2848,-0.228683 -0.53577,-0.501388 z m 50.97883,0.02049 c -0.24385,-0.258941 -0.43658,-0.474253 -0.42828,-0.478466 0.41783,-0.212327 1.23323,-0.793446 1.51488,-1.07961 0.64303,-0.653383 1.18037,-1.890873 1.43154,-3.296803 0.0619,-0.346865 0.12904,-1.277967 0.15256,-2.11817 l 0.0419,-1.499228 -0.86986,0.02567 -0.86987,0.02567 0.0207,-0.622889 0.0207,-0.622889 0.87442,0.01224 0.87442,0.01224 -0.004,-1.199311 c -0.002,-0.659622 -0.0296,-1.440222 -0.0604,-1.73467 -0.0308,-0.294445 -0.0515,-0.542188 -0.0458,-0.55054 0.0325,-0.04824 1.46988,0.153361 1.66323,0.233253 0.30613,0.126493 0.31749,0.368795 0.0225,0.480128 -0.11519,0.04348 -0.22719,0.145084 -0.24886,0.225787 -0.0216,0.08069 -0.0399,0.68604 -0.0404,1.345195 l -8.5e-4,1.198466 1.30271,-0.0092 1.30271,-0.0092 0.0213,0.63093 c 0.0365,1.083579 -0.12575,7.247824 -0.20238,7.686693 -0.1255,0.718714 -0.42485,1.165564 -0.9209,1.374711 -0.23331,0.09837 -1.26605,0.238405 -1.77776,0.241056 -0.18812,0.0012 -0.24749,-0.03278 -0.28035,-0.159369 -0.023,-0.08833 -0.17249,-0.417808 -0.33238,-0.732169 l -0.29069,-0.57156 0.99097,4.33e-4 0.99095,4.33e-4 0.14343,-0.19121 c 0.20441,-0.27252 0.25094,-0.911202 0.3098,-4.252246 l 0.0506,-2.873078 h -0.64484 -0.64485 l -0.0476,1.017178 c -0.0738,1.578587 -0.17967,2.666582 -0.33355,3.430009 -0.40924,2.030293 -1.3786,3.473681 -2.92066,4.348828 l -0.32122,0.182295 -0.44336,-0.470804 z m 19.67608,-0.197231 c -0.29188,-0.36989 -0.57893,-0.672485 -0.63788,-0.672435 -0.059,4.9e-5 -0.89418,0.07983 -1.85604,0.177295 -1.63008,0.165172 -6.77353,0.607804 -7.06278,0.607804 -0.0757,0 -0.16526,0.08665 -0.21594,0.209011 -0.14607,0.352674 -0.41246,0.361542 -0.57216,0.01906 -0.13124,-0.281448 -0.50068,-1.381312 -0.50068,-1.490616 0,-0.06972 0.15062,-0.09378 0.5889,-0.09406 0.32389,-2.14e-4 0.90027,-0.021 1.28086,-0.04619 l 0.69198,-0.04583 0.57502,-1.23688 c 0.31628,-0.680285 0.57504,-1.269803 0.57504,-1.310041 0,-0.04834 -0.72666,-0.07316 -2.14143,-0.07316 h -2.14142 v -0.660273 -0.660271 h 6.78118 6.78118 v 0.660271 0.660273 l -3.83672,0.0019 -3.83671,0.0019 -0.60483,1.229462 c -0.33266,0.676206 -0.61745,1.256751 -0.6329,1.2901 -0.0154,0.03335 0.24066,0.04087 0.56913,0.01671 0.32847,-0.02415 1.28783,-0.0917 2.1319,-0.150107 0.84407,-0.0584 1.7592,-0.127054 2.0336,-0.152548 l 0.4989,-0.04635 -0.6655,-0.621439 -0.6655,-0.621438 0.5131,-0.373201 0.51312,-0.373201 0.18884,0.17177 c 0.1039,0.09447 0.46733,0.421355 0.80771,0.726404 0.58451,0.523845 2.30537,2.351329 2.44263,2.593969 0.0667,0.117882 0.0751,0.109965 -0.70747,0.672627 l -0.36446,0.262084 -0.53067,-0.672524 z m 41.51235,-5.878219 v -6.56193 l 1.8046,0.0418 1.80459,0.0418 0.20522,-0.196603 c 0.26436,-0.253278 0.35654,-0.220781 0.95293,0.335905 0.35182,0.328411 0.47916,0.496189 0.47916,0.631371 0,0.195859 -0.15809,0.37567 -0.39286,0.446849 -0.10548,0.03197 -0.25253,0.318901 -0.56015,1.092914 -0.22941,0.577257 -0.58769,1.411155 -0.79615,1.85311 l -0.37902,0.803553 0.38575,0.297591 c 0.59986,0.462799 1.23994,1.189781 1.4632,1.661862 0.28653,0.605856 0.37291,1.107268 0.33554,1.947471 -0.0268,0.602286 -0.065,0.791827 -0.22558,1.120168 -0.35867,0.733069 -0.95606,1.065515 -2.13864,1.190119 -0.83518,0.088 -0.83283,0.08806 -0.83304,-0.01779 0,-0.04907 -0.13661,-0.36437 -0.30337,-0.700658 l -0.3032,-0.611429 0.82089,0.02694 c 0.91398,0.03001 1.17539,-0.04767 1.45824,-0.433234 0.1255,-0.171098 0.14783,-0.306072 0.14783,-0.893761 0,-0.636097 -0.0187,-0.730272 -0.23096,-1.161388 -0.17102,-0.347364 -0.3951,-0.627366 -0.86318,-1.078596 -0.3477,-0.335191 -0.76716,-0.698767 -0.93215,-0.807947 -0.16498,-0.109177 -0.28461,-0.233439 -0.26583,-0.276137 0.0188,-0.0427 0.21175,-0.470529 0.42887,-0.950736 0.38767,-0.857487 1.05621,-2.577429 1.15195,-2.963612 l 0.0486,-0.196298 h -0.97791 -0.97792 l 0.0244,5.960309 0.0244,5.960309 -0.67811,-8e-6 -0.67812,-5e-6 z m -122.63666,6.37489 c -0.0235,-0.07381 -0.15016,-0.401512 -0.28149,-0.728246 l -0.23876,-0.594062 0.86906,0.04731 c 1.25924,0.06854 1.15458,0.263848 1.15458,-2.15473 v -1.986632 l -2.01757,0.0209 -2.01756,0.0209 0.0189,-2.109875 0.0189,-2.109874 4.63275,2.5e-5 c 2.548,1.3e-5 4.64565,0.01294 4.66144,0.02874 0.0158,0.0158 0.0296,0.955825 0.0309,2.088954 l 0.002,2.060235 -1.97172,-0.02727 -1.97173,-0.02727 0.01,2.240075 c 0.005,1.232044 -0.0146,2.336441 -0.0434,2.454219 -0.15667,0.640496 -0.5549,0.827172 -1.86831,0.875816 -0.87851,0.03253 -0.94746,0.0256 -0.9872,-0.09921 z m 5.46503,-7.486406 v -0.963641 h -3.31921 -3.31921 v 0.963641 0.963641 h 3.31921 3.31921 z m 24.13972,7.271774 c -0.0495,-0.191309 -0.17971,-0.532938 -0.28951,-0.759174 l -0.19964,-0.411338 0.3273,0.03458 c 0.94629,0.09997 1.50728,0.113833 1.64399,0.04066 0.13878,-0.07427 0.14661,-0.141237 0.14661,-1.253732 v -1.175272 h -2.99798 -2.998 v -0.627858 -0.627858 l 3.00927,0.03014 3.00926,0.03014 -0.0436,-0.565467 c -0.0239,-0.311008 -0.0646,-0.620067 -0.0902,-0.686796 -0.041,-0.106959 -0.007,-0.116011 0.28094,-0.07644 0.30575,0.04191 0.37138,0.01855 0.98898,-0.351944 0.36384,-0.218257 0.77394,-0.480866 0.91135,-0.583575 l 0.24984,-0.186741 -2.98019,0.02085 -2.98018,0.02085 3e-5,-0.618963 3e-5,-0.618966 3.5155,0.03938 3.51553,0.03938 0.17303,-0.18776 c 0.0951,-0.103267 0.23511,-0.18776 0.31096,-0.18776 0.31472,0 1.26483,0.990259 1.26483,1.318295 0,0.165377 -0.15745,0.260757 -0.58311,0.353257 -0.10474,0.02277 -0.47417,0.205498 -0.82087,0.406067 -0.3467,0.200565 -0.9034,0.50781 -1.23712,0.682762 -1.14848,0.602122 -1.14168,0.596717 -1.14189,0.907165 l -2.2e-4,0.276961 2.998,-0.0316 2.998,-0.0316 v 0.629062 0.629062 h -2.99407 -2.99406 l -0.0217,1.529665 c -0.0249,1.75331 -0.0376,1.793474 -0.66066,2.10559 -0.29946,0.149998 -0.47192,0.177558 -1.28325,0.205073 l -0.93731,0.03179 -0.0899,-0.347836 z m 62.87349,-1.597 v -1.927282 h -2.21282 -2.2128 v -0.606736 -0.606738 h 2.2128 2.21282 v -0.937913 -0.937909 l -1.67745,0.05186 -1.67747,0.05186 v -0.612937 -0.612945 h 1.67747 1.67745 v -0.903684 -0.903683 l -1.99867,0.04469 -1.99867,0.04469 v -0.622165 l -10e-6,-0.622166 1.42869,0.02532 1.4287,0.02532 -0.0685,-0.179987 c -0.15253,-0.401164 -0.53932,-1.109089 -0.82975,-1.518681 l -0.30815,-0.434569 0.53348,-0.303527 c 0.41368,-0.235366 0.55539,-0.285345 0.63104,-0.222558 0.23581,0.195705 1.30455,1.902962 1.23486,1.972642 -0.0108,0.01075 -0.27604,0.166547 -0.58952,0.346204 l -0.56998,0.32665 1.14209,-0.01841 1.14209,-0.01841 0.37149,-0.927951 c 0.20431,-0.510372 0.42064,-1.117511 0.48073,-1.349195 0.0601,-0.231685 0.12262,-0.434629 0.13899,-0.450986 0.0504,-0.05034 1.52494,0.550545 1.6138,0.657613 0.14647,0.176496 0.0506,0.348733 -0.23943,0.430106 -0.26085,0.07318 -0.2933,0.116752 -0.65802,0.883099 l -0.38362,0.806117 1.51514,-0.02223 1.51515,-0.02224 0.0206,0.618877 0.0206,0.618878 -2.10847,-0.0435 -2.10846,-0.0435 v 0.9036 0.903602 h 1.71315 1.71314 v 0.612514 0.612515 l -1.71314,-0.05165 -1.71315,-0.05166 v 0.938141 0.938139 h 2.21281 2.2128 v 0.606738 0.606738 h -2.22105 -2.22108 l 0.0276,1.927281 0.0277,1.927282 h -0.69751 -0.6975 z m 15.34685,1.713439 c 0,-0.06551 -0.41164,-0.967075 -0.62518,-1.369231 -0.014,-0.0266 0.55138,-0.04268 1.25668,-0.0357 1.25269,0.01239 1.28653,0.0089 1.46028,-0.153527 0.26377,-0.246487 0.5691,-1.697048 0.6336,-3.010223 l 0.0228,-0.463976 h -4.24716 -4.24716 l -0.0713,0.571046 -0.0713,0.571047 -0.60673,-0.0229 c -0.92002,-0.03473 -0.85814,0.05364 -0.67191,-0.959558 0.22585,-1.228719 0.45401,-3.074945 0.50612,-4.095426 l 0.0443,-0.866427 0.63696,0.170464 c 0.63274,0.169332 0.66158,0.170464 4.34363,0.170464 h 3.70663 v -0.9691 -0.969098 l -4.63976,0.0233 -4.63979,0.0233 3e-5,-0.642427 3e-5,-0.642427 h 5.3357 5.33572 l -0.0106,2.212804 -0.0107,2.212805 -4.38502,-0.02696 -4.38503,-0.02696 -0.0886,0.847843 c -0.0487,0.466314 -0.10622,0.921356 -0.12767,1.011203 l -0.0391,0.16336 4.87828,-0.0084 c 3.69176,-0.0064 4.88508,0.012 4.90633,0.07576 0.0494,0.148066 -0.13323,2.355546 -0.27849,3.367011 -0.19513,1.358606 -0.35834,1.849805 -0.75592,2.27485 -0.4603,0.492094 -0.75702,0.580756 -2.07708,0.620623 -0.82193,0.02482 -1.08855,0.01172 -1.08855,-0.05346 z M 300.2372,86.23993 c -0.0653,-0.02669 -0.36111,-0.238731 -0.65735,-0.471215 l -0.53865,-0.422697 0.23798,-0.326801 c 0.46402,-0.637206 1.11967,-2.415205 1.68299,-4.563981 l 0.0816,-0.311236 0.15574,0.14163 c 0.0858,0.07791 0.34103,0.263049 0.5675,0.411448 0.33726,0.221 0.40412,0.296887 0.36951,0.419437 -0.19053,0.674882 -0.76406,2.433311 -1.11459,3.41731 -0.32957,0.925148 -0.4156,1.247937 -0.37809,1.418686 0.0648,0.295258 -0.10094,0.412391 -0.40663,0.287419 z m 29.41741,-0.04852 c -0.002,-0.01964 -0.004,-1.246671 -0.006,-2.726757 l -0.003,-2.691066 2.96854,-0.0036 2.96861,-0.0036 v 2.658936 2.658934 h -0.67813 -0.67811 v -0.356898 -0.356903 h -1.64177 -1.64176 v 0.428285 0.428285 h -0.64242 c -0.35333,0 -0.64384,-0.01606 -0.64555,-0.0357 z m 4.57148,-3.105067 v -1.213478 h -1.64174 -1.64177 v 1.213473 1.213475 h 1.64177 1.64174 z m -72.8798,2.915094 c -0.80481,-0.02596 -1.72137,-0.09443 -2.0368,-0.152135 -0.74082,-0.135534 -1.52916,-0.468145 -2.06618,-0.871753 -0.23478,-0.176455 -0.44777,-0.320826 -0.47329,-0.320826 -0.0255,0 -0.37949,0.2086 -0.78659,0.463553 -0.40711,0.254958 -0.76026,0.463747 -0.78481,0.463977 -0.0245,2.14e-4 -0.0642,0.09907 -0.0885,0.219627 -0.0354,0.177147 -0.0748,0.214812 -0.20521,0.196298 -0.12308,-0.01748 -0.23287,-0.16711 -0.46256,-0.630416 -0.43293,-0.87324 -0.43039,-0.911767 0.0705,-1.068892 0.22645,-0.07104 0.70024,-0.266266 1.05288,-0.433844 l 0.64114,-0.304691 v -1.885148 -1.885151 l -0.99944,0.02324 -0.99943,0.02323 7e-5,-0.642426 6e-5,-0.642428 1.65964,0.01651 1.65965,0.01651 0.0187,2.571249 0.0187,2.571248 0.30249,0.222842 c 0.91035,0.670678 1.68336,0.795052 4.90653,0.789439 1.31519,-0.0022 3.06142,-0.04006 3.8805,-0.08393 0.81908,-0.04388 1.50383,-0.06519 1.52164,-0.04738 0.0177,0.01783 -0.0464,0.188167 -0.14281,0.378552 -0.0964,0.190386 -0.21704,0.486015 -0.26815,0.656955 -0.0512,0.170939 -0.12701,0.321488 -0.16866,0.334552 -0.15998,0.05021 -4.85765,0.06617 -6.25012,0.02124 z m 8.25172,-0.08182 c -0.14663,-0.14664 -0.61397,-1.214816 -0.61397,-1.403348 0,-0.04526 0.25041,-0.07369 0.64905,-0.07369 0.62119,0 2.20827,-0.114654 2.54524,-0.18387 0.14807,-0.03041 0.16061,-0.0719 0.16061,-0.531297 v -0.498305 h -1.42762 -1.4276 v -0.545143 -0.545146 l 1.4276,0.05175 1.42762,0.05175 v -0.406783 -0.406778 l -1.30028,0.02576 -1.30025,0.02576 -0.003,-2.204446 -0.003,-2.204443 1.30348,0.05057 1.30349,0.05057 V 76.7996 76.426671 l -1.64177,0.03868 -1.64176,0.03869 v -0.555786 -0.555774 l 1.64176,0.03868 1.64177,0.03869 v -0.403238 c 0,-0.275749 -0.0282,-0.402776 -0.0892,-0.401806 -0.0491,7.8e-4 -0.52287,0.04833 -1.05288,0.105652 -1.47138,0.159154 -1.35338,0.186152 -1.62305,-0.371372 -0.26888,-0.55588 -0.24925,-0.589548 0.34459,-0.591176 1.14969,-0.0032 4.0275,-0.3828 4.85581,-0.640597 l 0.40878,-0.127225 0.4821,0.365519 c 0.53472,0.405409 0.64394,0.540149 0.57772,0.712723 -0.033,0.08609 -0.13656,0.116773 -0.39402,0.116773 -0.19206,0 -0.76322,0.0639 -1.26926,0.142006 -0.50602,0.0781 -0.94412,0.142346 -0.97356,0.14276 -0.0294,4.13e-4 -0.0536,0.213187 -0.0536,0.472822 v 0.472067 l 1.499,-0.0271 1.499,-0.0271 v 0.548639 0.548637 l -1.499,-0.04092 -1.499,-0.04091 v 0.373962 0.373961 l 1.34129,-0.05106 1.34131,-0.05106 8.3e-4,2.209165 0.002,2.209165 -1.34262,-0.03216 -1.3426,-0.03216 v 0.410207 0.410204 l 1.35623,-0.05218 1.35623,-0.05218 v 0.543606 0.543608 h -1.35622 -1.35623 v 0.428284 c 0,0.29561 0.0276,0.427954 0.0892,0.427217 0.0986,-0.0012 2.30916,-0.33062 2.65968,-0.396375 l 0.22084,-0.04143 -0.0291,0.487112 c -0.0159,0.267915 -0.0498,0.50873 -0.0751,0.535149 -0.0604,0.06315 -3.23147,0.585225 -4.68579,0.771489 -1.70877,0.218847 -1.67745,0.212307 -1.67745,0.35026 0,0.128968 -0.12987,0.293523 -0.23167,0.293523 -0.0331,0 -0.13447,-0.07412 -0.22508,-0.164724 z m 2.74093,-5.831262 v -0.42828 h -0.7138 -0.71382 v 0.428284 0.428285 h 0.71382 0.7138 z m 2.64109,0 v -0.42828 h -0.71381 -0.71381 v 0.428284 0.428285 h 0.71381 0.71381 z m -2.64109,-1.677448 v -0.392602 h -0.7138 -0.71382 v 0.392595 0.392594 h 0.71382 0.7138 z m 2.64109,0 v -0.392602 h -0.71381 -0.71381 v 0.392595 0.392594 h 0.71381 0.71381 z m -64.79674,6.969463 c -0.12804,-0.18886 -0.31045,-0.416336 -0.40536,-0.505498 l -0.17256,-0.162113 0.78077,-0.38319 c 0.42943,-0.210754 1.01336,-0.540702 1.29762,-0.733219 0.51606,-0.349481 1.30858,-1.114867 1.47215,-1.421724 l 0.0865,-0.162222 0.64372,0.332469 c 0.64132,0.331229 0.93824,0.608938 0.79943,0.747734 -0.0387,0.03867 -0.19601,0.09022 -0.34966,0.114546 -0.22132,0.03505 -0.40167,0.159595 -0.8681,0.599513 -0.32382,0.3054 -0.85381,0.730564 -1.17779,0.944812 -0.55275,0.365532 -1.69664,0.978199 -1.81877,0.97412 -0.0303,-0.0012 -0.15989,-0.156363 -0.28793,-0.345228 z m 11.11838,-0.377141 c -0.60192,-0.516505 -1.88218,-1.42852 -2.75636,-1.963542 -0.1241,-0.07595 -0.10137,-0.116206 0.29149,-0.517512 0.23432,-0.239337 0.44759,-0.435157 0.47389,-0.435157 0.19698,0 2.77044,1.702077 3.58575,2.371596 l 0.20285,0.166575 -0.47722,0.515433 c -0.26246,0.283491 -0.49828,0.513255 -0.52405,0.510593 -0.0258,-0.0026 -0.38413,-0.294258 -0.79635,-0.647986 z M 262.1315,83.86431 v -0.578276 l -2.07008,0.02507 -2.07005,0.02507 2e-5,-0.553202 10e-6,-0.5532 h 2.10573 2.10574 v -0.324899 -0.324899 l -1.51685,0.01178 -1.51684,0.01178 -0.008,-2.216285 -0.008,-2.216285 1.5249,0.04221 1.52491,0.04221 v -0.341345 -0.341346 l -1.24917,0.03094 -1.24916,0.03094 v -0.532537 -0.532523 l 1.21468,0.04931 c 1.3837,0.05617 1.33509,0.07718 1.22484,-0.529343 l -0.068,-0.37467 0.66201,0.04654 c 0.74876,0.05264 1.10665,0.152182 1.10665,0.307819 0,0.05846 -0.0963,0.142661 -0.21414,0.187117 -0.15484,0.05844 -0.21415,0.127611 -0.21415,0.24975 v 0.168919 l 1.35624,-0.05162 1.35623,-0.05162 v 0.530068 0.530069 l -1.35623,-0.02917 -1.35624,-0.02917 v 0.34089 0.340888 l 1.5595,-0.04164 1.55951,-0.04164 -0.007,2.215615 -0.007,2.215611 -1.55253,-0.01157 -1.55253,-0.01157 v 0.324838 0.32484 h 2.17711 2.17711 l 2e-5,0.5532 3e-5,0.553202 -2.17545,-0.02481 -2.17544,-0.0248 0.0446,0.578006 0.0446,0.578006 h -0.68875 -0.68871 v -0.578273 z m 0.0713,-3.633193 v -0.428292 h -0.89225 -0.89225 v 0.428285 0.428284 h 0.89225 0.89225 z m 3.06939,0 v -0.428292 h -0.92794 -0.92796 v 0.428285 0.428284 h 0.92796 0.92794 z m -3.08367,-1.695294 -0.0214,-0.41044 -0.87441,-0.02004 -0.87442,-0.02005 v 0.430483 0.430481 h 0.89582 0.89582 z m 3.08367,-0.01785 v -0.428277 h -0.92794 -0.92796 v 0.428286 0.428284 h 0.92796 0.92794 z m 63.31478,0.582343 v -0.595439 l 2.21078,0.05216 2.21081,0.05216 0.0774,-0.203585 c 0.16818,-0.442349 0.57082,-1.87932 0.61318,-2.188394 l 0.0449,-0.327412 0.36594,0.108482 c 0.60952,0.180696 1.10968,0.382696 1.21951,0.492536 0.14678,0.146784 0.0619,0.303886 -0.20084,0.371985 -0.20589,0.05334 -0.24592,0.116351 -0.48776,0.767413 -0.1449,0.39011 -0.2654,0.757472 -0.26777,0.816363 -0.003,0.09191 0.1575,0.103487 1.1378,0.08174 l 1.1421,-0.02533 v 0.596369 0.596372 h -4.03301 -4.03301 z m -44.30409,-0.337554 -0.51195,-0.52088 0.79748,-0.440669 c 1.70008,-0.939421 2.89541,-1.832236 3.94296,-2.945047 0.63784,-0.67757 1.40286,-1.745598 1.48512,-2.073318 0.056,-0.223055 0.1272,-0.230255 0.82524,-0.08342 0.94024,0.197786 1.1993,0.391553 0.8503,0.636002 l -0.15382,0.107735 0.2029,0.271061 c 0.1116,0.149084 0.54218,0.609455 0.95686,1.023046 1.18096,1.177889 2.61314,2.05624 4.58733,2.813408 l 0.69262,0.265645 -0.37141,0.44466 c -0.20428,0.244563 -0.43931,0.538948 -0.52228,0.65419 l -0.15087,0.209531 -0.52114,-0.249833 c -0.28663,-0.137407 -0.82102,-0.414838 -1.18752,-0.616514 l -0.66638,-0.366683 v 0.59867 0.598667 h -3.71181 -3.7118 v -0.61282 -0.612814 l -0.33906,0.247396 c -0.46105,0.336415 -1.85923,1.19471 -1.9265,1.182617 -0.0299,-0.0054 -0.2847,-0.244156 -0.56627,-0.530639 z m 10.00203,-1.018357 c -0.0372,-0.03286 -0.34962,-0.260443 -0.69405,-0.505725 -0.72001,-0.512746 -1.63625,-1.359181 -2.36266,-2.182676 -0.27704,-0.314075 -0.52311,-0.571046 -0.54684,-0.571046 -0.0236,0 -0.28937,0.293504 -0.59035,0.652232 -0.60367,0.719512 -1.347,1.437211 -2.18067,2.1055 -0.30019,0.240633 -0.5565,0.465405 -0.56959,0.499496 -0.0133,0.03453 1.53387,0.06198 3.4941,0.06198 1.93483,0 3.48736,-0.0269 3.45006,-0.05976 z m 6.36236,1.095379 c -0.1928,-0.137079 -0.66891,-0.412764 -1.05802,-0.612632 -0.50386,-0.25882 -0.69613,-0.392921 -0.66808,-0.465992 0.0216,-0.05642 0.16931,-0.293945 0.32812,-0.527813 l 0.28877,-0.425216 0.35888,0.141463 c 0.50196,0.197852 1.58557,0.7692 1.84315,0.971814 0.0224,0.01755 -0.69988,1.167609 -0.73319,1.167609 -0.005,0 -0.16682,-0.112153 -0.35963,-0.249233 z m -60.8918,-1.585241 0.007,-1.763096 4.2922,0.02063 4.29219,0.02063 0.32785,-0.511479 c 0.38197,-0.595902 0.93113,-1.662652 1.00216,-1.946708 0.0271,-0.108335 0.0716,-0.210782 0.0988,-0.227659 0.0727,-0.04488 1.44413,0.519161 1.59551,0.656148 0.18828,0.170397 0.12268,0.32511 -0.17331,0.408782 -0.22463,0.0635 -0.32979,0.17937 -0.7721,0.850739 l -0.51205,0.777233 1.37431,-0.02774 1.37429,-0.02774 0.008,1.730984 0.008,1.730985 h -0.66179 -0.6618 l -0.0196,-1.124247 -0.0197,-1.124247 h -5.10373 -5.10372 l -0.0197,1.159937 -0.0196,1.159939 h -0.66148 -0.66147 z m 90.87723,0.835077 c -0.0631,-0.226695 -0.24045,-0.702343 -0.39427,-1.056992 l -0.27968,-0.644818 0.5386,-0.219364 c 0.39272,-0.159945 0.56337,-0.198811 0.63003,-0.143487 0.13633,0.113142 0.75895,1.62801 0.76959,1.872416 0.009,0.203109 -0.0144,0.219697 -0.57025,0.408068 l -0.57943,0.196354 z m -72.51475,-3.015708 c 0.0108,-0.638002 0.0268,-1.265292 0.0358,-1.393978 l 0.0161,-0.233975 4.74682,3.69e-4 4.74683,3.67e-4 0.0194,1.393538 0.0194,1.393537 h -0.64393 -0.64394 v -0.85654 -0.856569 h -3.49766 -3.49765 v 0.856569 0.85657 l -0.66028,6.6e-5 -0.66028,6.5e-5 0.0196,-1.160003 z m 70.8259,0.102972 v -0.592925 l 1.50888,0.0508 1.50887,0.05081 -0.0342,-0.946661 -0.0342,-0.94666 0.68459,0.04769 c 1.10517,0.07699 1.41519,0.250787 0.93486,0.524103 -0.21067,0.119874 -0.2137,0.130091 -0.21415,0.721382 l -6.3e-4,0.599788 1.53467,-0.0501 1.53469,-0.0501 v 0.592415 0.592416 h -3.71181 -3.7118 v -0.592939 z m -119.13447,-0.16797 v -0.618142 l 2.96231,0.04026 2.96229,0.04026 -0.004,-0.528519 c -0.002,-0.290685 -0.03,-0.684937 -0.0613,-0.876111 l -0.0571,-0.347594 0.78864,0.05112 c 0.43375,0.02812 0.86288,0.07933 0.95362,0.113839 0.24409,0.0928 0.2159,0.34145 -0.0491,0.433856 -0.21247,0.07407 -0.21415,0.07888 -0.21415,0.614125 v 0.539475 l 3.03368,-0.04085 3.03369,-0.04085 v 0.618637 0.618637 h -6.67411 -6.67411 v -0.61814 z m 91.63012,0.340034 c -0.18924,-0.170192 -0.62287,-0.473639 -0.96365,-0.674327 -0.34077,-0.200689 -0.658,-0.389705 -0.70493,-0.420035 -0.0584,-0.03782 0.0449,-0.198624 0.32953,-0.512181 l 0.41488,-0.457034 0.62716,0.333628 c 0.34494,0.183496 0.83194,0.479762 1.08224,0.658369 l 0.45509,0.324742 -0.20946,0.26264 c -0.1152,0.144452 -0.31686,0.382114 -0.44813,0.528138 l -0.23868,0.265499 z m -44.76863,0.01642 c -0.15704,-0.118914 -0.63886,-0.393419 -1.0707,-0.610011 -0.43186,-0.216591 -0.7952,-0.402808 -0.80742,-0.413813 -0.0122,-0.01101 0.14584,-0.25035 0.35123,-0.531875 0.33453,-0.458482 0.39268,-0.507096 0.5576,-0.466136 0.26565,0.06599 1.73243,0.804364 1.96026,0.986812 l 0.19307,0.154602 -0.37789,0.551445 c -0.20782,0.303294 -0.40998,0.550035 -0.44924,0.548314 -0.0392,-0.0017 -0.19988,-0.100429 -0.35691,-0.219338 z M 242.25249,75.05044 c -0.10537,-0.179726 -0.39844,-0.581017 -0.65138,-0.89176 l -0.45987,-0.564988 0.37691,-0.239626 c 0.46696,-0.296865 0.66813,-0.403801 0.75965,-0.403801 0.0959,0 1.02881,1.096745 1.21564,1.429179 l 0.14974,0.266432 -0.55698,0.365668 c -0.30634,0.201117 -0.57615,0.365668 -0.59959,0.365668 -0.0234,0 -0.1288,-0.147047 -0.23412,-0.326772 z m 3.5743,-0.161483 c -0.0963,-0.190021 -0.35397,-0.612777 -0.57263,-0.939458 -0.21866,-0.326681 -0.38936,-0.599469 -0.37933,-0.606197 0.28044,-0.188114 1.1594,-0.597191 1.18977,-0.553723 0.0231,0.03304 0.17609,0.235271 0.34006,0.449427 0.35094,0.458344 0.80829,1.203661 0.80829,1.317225 0,0.0691 -1.04829,0.678219 -1.16721,0.678219 -0.024,0 -0.12264,-0.155472 -0.21895,-0.345493 z"
               id="path39" />
            <path
               style="fill:#045867;stroke-width:1.21796;fill-opacity:1"
               id="path43"
               d="m -18.318527,-66.623589 a 24.917789,16.228218 0 0 1 -12.458895,14.05405 24.917789,16.228218 0 0 1 -24.91779,-1e-6 24.917789,16.228218 0 0 1 -12.458894,-14.054049"
               transform="matrix(-1,0,-0.20798784,-0.97813141,0,0)" />
            <path
               transform="matrix(-1,0,-0.20798784,0.97813141,0,0)"
               d="m -46.925732,72.894913 a 24.917789,16.228218 0 0 1 -12.458895,14.054049 24.917789,16.228218 0 0 1 -24.91779,0 24.917789,16.228218 0 0 1 -12.458894,-14.054049"
               id="path43-8"
               style="fill:#045867;stroke:none;stroke-width:1.21796;stroke-opacity:1;fill-opacity:1" />
          </g>
        </g>
      </g>
    </g>
  </g>
</svg>
